<?xml version="1.0" encoding="utf-8"?>
<!-- Generator: Adobe Illustrator 21.0.0, SVG Export Plug-In . SVG Version: 6.00 Build 0)  -->
<svg version="1.1" id="Warstwa_1" xmlns="http://www.w3.org/2000/svg" xmlns:xlink="http://www.w3.org/1999/xlink" x="0px" y="0px"
	 viewBox="0 0 1048.7 250" style="enable-background:new 0 0 1048.7 250;" xml:space="preserve">
<style type="text/css">
	.st0{fill:#1F1F1F;}
	.st1{fill:#1E1E1E;}
	.st2{fill:#202020;}
	.st3{fill:#0988BE;}
	.st4{fill:#FEAC01;}
	.st5{fill:#282828;}
	.st6{fill:#BB33DC;}
	.st7{fill:#71BD2B;}
	.st8{fill:#4B4B4B;}
</style>
<g id="U2fNQc_1_">
	<g>
		<g>
			<path class="st0" d="M668.1,141.5c14.1,8.3,28.2,16.6,44.6,26.2c-16.6-0.2-30.5,2.4-43.2-8.1c-10.1-8.3-22.2-14.2-34.7-21.9
				c0,10.8,0,20,0,29.7c-5.8,0-10.9,0-16.6,0c0-26.7,0-53.6,0-79.8c26.3,0,52.6-0.5,78.9,0.3c7.9,0.3,13.4,6.3,14.2,15.2
				c0.2,2.3,0.8,4.6,1,6.9c1.3,21.2-6.2,29.4-27.4,29.9c-5.4,0.1-10.9,0-16.3,0C668.4,140.4,668.2,140.9,668.1,141.5z M634.8,125.9
				c17.6,0,34.5,0,51.3,0c7.1,0,8.7-4.8,8.8-10.5c0-5.7,0.8-13.3-7.1-13.7c-17.6-0.8-35.2-0.3-53-0.3
				C634.8,110,634.8,117.5,634.8,125.9z"/>
			<path class="st1" d="M769.2,168.5c-9.5-0.8-18.8-1.3-28-2.3c-9.4-1-16.3-6.3-16.8-15.9c-0.7-16.2-0.4-32.4,0.4-48.6
				c0.5-8.7,7.2-13.8,15.3-14.2c19.4-0.7,38.9-0.8,58.2,0c9.3,0.4,15.3,7.4,15.7,16.9c0.6,14.8,0.6,29.6,0,44.4
				c-0.4,9.6-6.1,15.7-15.6,17C788.7,167.4,778.8,167.7,769.2,168.5z M768.8,152.1c6.1,0,12.2-0.1,18.3,0c6,0.2,9.8-2.6,9.9-8.4
				c0.4-11.2,0.7-22.6-0.4-33.7c-0.3-3.1-5.6-7.9-8.9-8.1c-12.4-1-24.9-0.5-37.4-0.3c-6.2,0.1-9.6,3.5-9.6,9.8
				c0,10.4-0.1,20.9,0,31.3c0.1,6.4,3.5,9.5,9.8,9.4C756.7,152,762.7,152.1,768.8,152.1z"/>
			<path class="st1" d="M529.2,143.5c0,8.8,0,16,0,23.8c-5.7,0-11.1,0-17,0c0-26.7,0-53.5,0-79.8c26,0,52-0.4,77.9,0.3
				c7.6,0.2,13.5,5.7,14.4,14c0.9,8,1.8,16.2,1,24.2c-1.3,12.1-7.4,17.3-19.7,17.5C567.3,143.7,548.8,143.5,529.2,143.5z
				 M529.5,129.4c17.2,0,33.4,0,49.7,0c7.9,0,9.5-5.2,9.4-11.7c0-6.9,1.1-15.5-8.7-16c-16.7-0.8-33.4-0.2-50.4-0.2
				C529.5,111.2,529.5,120,529.5,129.4z"/>
			<path class="st2" d="M296.8,119c20.7,0,40,0,60.2,0c0-10.9,0-21.5,0-32.7c5.9,0,11,0,16.7,0c0,26.7,0,53.6,0,81
				c-5.1,0-10.4,0-16.4,0c0-10.6,0-21,0-32c-20.2,0-39.7,0-59.9,0c0,10.6,0,21,0,31.9c-5.9,0-11.3,0-17.3,0c0-26.5,0-53.4,0-80.9
				c5.1,0,10.5,0,16.6,0C296.8,96.7,296.8,107.4,296.8,119z"/>
			<path class="st0" d="M890,125.3c15.2,14.3,29.5,27.7,44.5,41.8c-14.7,2.2-27.2,2-37.1-10.7c-5.8-7.5-13.8-13.3-21.1-20.2
				c-8.3,7.7-16.7,14.9-24.2,22.9c-6.2,6.6-12.7,10.4-22,8.9c-3.1-0.5-6.4-0.1-11.7-0.1c16.1-14.8,31.1-28.6,46.2-42.5
				c-14.2-12.9-28-25.4-43.8-39.6c13.7,0.9,25.5-3.4,34.8,8.8c5.9,7.7,14.2,13.7,21.6,20.7c7.5-6.7,15.5-12.2,21.5-19.5
				c9.2-11.2,20.7-10.6,34.4-9.3C918.5,99.6,904.6,112.2,890,125.3z"/>
			<path class="st3" d="M63.2,202.2c-0.1,12.8-0.4,25.6-0.1,38.4c0.1,6.6-2.1,9.5-9.1,9.4c-15.1-0.3-30.2-0.3-45.4,0
				c-6.5,0.1-8.7-2.6-8.6-8.9c0.2-14.5,0.2-29.1,0-43.6c-0.1-6.4,2.3-8.9,8.7-8.8c15.7,0.2,31.4-0.1,47.1-0.2
				C65,189.5,62.4,196.8,63.2,202.2z"/>
			<path class="st1" d="M383.6,166.9c4-6.5,7.7-12.9,11.6-19.2c11.3-18.2,22.5-36.5,34-54.5c7.4-11.7,19.5-12.5,26.6-1.4
				c15.7,24.6,30.8,49.6,46.3,74.5c-14.9,4.1-19,3-26-9.5c-3.6-6.4-7.7-8.7-15-8.3c-13,0.7-26.2,0.5-39.2,0c-5.3-0.2-9.2,1-10.9,6.1
				C406.5,167.9,396.8,170.2,383.6,166.9z M442.8,102c-6.8,11.4-12.9,21.4-19.5,32.4c13.4,0,25.6,0,39,0
				C455.7,123.3,449.6,113.3,442.8,102z"/>
			<path class="st4" d="M191.9,50.8c0.1-13.7,0.5-27.3,0.2-41c-0.1-7,2.1-10,9.5-9.8c14.2,0.4,28.5,0.3,42.7,0
				c6.9-0.2,9.3,2.5,9.2,9.3c-0.3,14.2-0.4,28.5,0,42.7c0.2,7.5-3,9.5-9.9,9.4c-11.9-0.3-23.8,0.1-35.7,0.2
				C200.7,60.7,190.7,63.9,191.9,50.8z"/>
			<path class="st5" d="M102.5,146.7c-6.6-14.5-4.3-30-4.7-45.2c0-2.9,0.1-5.9,0.1-8.8c0.6-0.6,1.1,0.5,1.7-0.1c2.7,0.6,5.5,0,8.2,0
				c16.4-0.1,32.8-0.5,49.2-0.8c0.2,4,0.4,8,0.6,12.1c-1.4,14.4-2.9,28.7-4.3,43.1c-1.6,2.3-3.2,4.6-4.8,6.9
				c-4.1,2.8-8,6.1-12.3,8.6c-8.6,4.9-8.6,4.9-17.3,0c-4.3-2.5-8.2-5.7-12.4-8.5C105.3,151.4,103.9,149.1,102.5,146.7z"/>
			<path class="st6" d="M66.3,79.3c-10.5-0.1-21-0.5-31.4-0.3c-6.4,0.1-8.8-2.4-8.7-8.8c0.3-12.2,0.3-24.5,0-36.7
				c-0.1-6.2,1.8-9.1,8.5-9c12.5,0.3,25,0.3,37.5,0c6-0.1,8.4,2.2,8.3,8.2c-0.2,11.9,0.1,23.9,0.2,35.8C81.9,80.2,73.5,79,66.3,79.3
				z"/>
			<path class="st7" d="M178.7,169.3c11.9,0.1,23.8,0.4,35.7,0.1c6.6-0.1,9.6,2.1,9.4,9c-0.3,12.5-0.2,25,0,37.5
				c0.1,5.6-2.2,7.8-7.8,7.8c-12.2-0.2-24.4-0.2-36.6,0c-6.1,0.1-8.3-2.5-8.2-8.4c0.2-11-0.1-22.1-0.2-33.1
				C171.9,176.9,169.1,169.5,178.7,169.3z"/>
			<path class="st2" d="M993.8,115.3c7.6-6.6,15.8-12.4,22.2-19.7c8.8-10.1,19.3-11.2,32.7-9c-13.7,12.5-26.4,24.5-39.7,36
				c-5.1,4.4-7.3,8.9-6.9,15.6c0.6,9.5,0.1,19.1,0.1,29.1c-6,0-11.4,0-17.4,0c0-10.1-0.3-20,0.1-29.8c0.2-5.7-1.3-9.7-5.7-13.6
				c-13.7-12-27-24.5-41-37.3c13.8-2.3,25.2-1.5,34.5,9.6C978.6,103.3,986.4,108.7,993.8,115.3z"/>
			<g>
				<path class="st8" d="M191.9,50.8c-5.3,6.9-10.7,13.8-16,20.7c-3.3,3.5-6.6,7.1-9.9,10.6c-3,3.2-6,6.4-9,9.6
					c0.2,4,0.4,8,0.6,12.1c5-4.9,10-9.8,15-14.7c3.6-3.4,7.3-6.7,10.9-10.1c8.1-5.8,16.1-11.6,24.2-17.4
					C200.7,60.7,190.7,63.9,191.9,50.8z"/>
				<path class="st8" d="M88.8,159.9c-5.2,4.9-10.4,9.8-15.6,14.7c-5.8,4.6-11.5,9.2-17.3,13.9c9.1,1,6.5,8.3,7.4,13.7
					c6-7.3,12-14.6,17.9-22c3.9-4.1,7.7-8.2,11.6-12.2c4.6-4.7,9.2-9.5,13.9-14.2c-1.4-2.4-2.7-4.7-4.1-7.1
					C97.9,151.1,93.3,155.5,88.8,159.9z"/>
				<path class="st8" d="M153.3,146.9c-1.6,2.3-3.2,4.6-4.8,6.9c2.9,3,5.7,6.1,8.6,9.1c4.6,6.5,9.3,12.9,13.9,19.4
					c0.8-5.3-1.9-12.8,7.7-12.9c-5.4-4.6-10.9-9.1-16.3-13.7C159.3,152.7,156.3,149.8,153.3,146.9z"/>
				<path class="st8" d="M97.8,101.5c0-2.9,0.1-5.9,0.1-8.8c0.6-0.6,2.4,0.2,4,0.2C95.6,85.4,87,76,80.7,68.5
					c1.3,11.7-7.1,10.4-14.4,10.7c8.8,5.7,17.5,11.4,26.3,17.2C94.3,98.1,96.1,99.8,97.8,101.5z"/>
			</g>
		</g>
	</g>
</g>
<polygon class="st5" points="97.8,92.3 141.5,92.3 141.5,97.9 97.8,102.3 "/>
</svg>
