<svg xmlns="http://www.w3.org/2000/svg" width="255.005" height="290.324" filter="url(#a)"><path fill="#16233F" d="M189.524 176.852v-63.367L134.88 145.22l54.644 31.632"/><path fill="#02AEDE" d="M185.99 107.302l-54.738-31.65v63.377L185.99 107.3M124.137 139.027V75.65L69.36 107.3l54.777 31.727M120.597 69.568L65.87 37.733v63.472l54.727-31.637"/><path fill="#16233F" d="M185.99 182.94l-54.738-31.624v63.37l54.737-31.745M124.137 214.686v-63.37L69.36 182.943l54.777 31.742"/><path fill="#02AEDE" d="M251.457 145.22l-54.817-31.732v63.362l54.817-31.63M58.743 101.205V37.733L3.607 69.568l55.136 31.637"/><path fill="#16233F" d="M120.597 220.775l-54.726-31.72v63.45l54.727-31.73"/><path fill="#02AEDE" d="M58.743 252.508v-63.45L3.607 220.78l55.136 31.73"/><path fill="#16233F" d="M120.597 145.22L65.87 113.487v63.362l54.727-31.63"/><path fill="#02AEDE" d="M189.524 101.205V37.733L134.88 69.568l54.644 31.637"/><path fill="#16233F" d="M131.253 0v63.357l54.737-31.72L131.253 0M69.36 31.637l54.776 31.72V0L69.36 31.637M185.99 258.59l-54.738-31.615v63.348l54.737-31.733M124.137 290.324V226.97L69.36 258.59l54.777 31.734"/><path fill="#02AEDE" d="M255.005 214.686v-63.37l-54.677 31.628 54.677 31.742M58.743 176.852v-63.466L3.607 145.22l55.136 31.632M55.217 182.94L0 151.317v63.367l55.217-31.742M255.005 139.027V75.65l-54.677 31.65 54.677 31.727M251.457 69.568L196.64 37.733v63.472l54.817-31.637M251.457 220.775l-54.817-31.72v63.45l54.817-31.73"/><path fill="#16233F" d="M189.524 252.508v-63.45L134.88 220.78l54.644 31.728"/><path fill="#02AEDE" d="M55.217 107.302L0 75.652v63.377L55.217 107.3"/><filter id="a"><feColorMatrix values="0.3333 0.3333 0.3333 0 0 0.3333 0.3333 0.3333 0 0 0.3333 0.3333 0.3333 0 0 0 0 0 1 0"/></filter></svg>